<svg width="28" height="15" viewBox="0 0 28 15" fill="none" xmlns="http://www.w3.org/2000/svg">
<path d="M20.3729 14.933C20.7026 14.9443 21.0192 14.8033 21.2397 14.5486L27.1133 7.93434L21.2397 1.32012C20.9711 1.00851 20.5606 0.869769 20.1654 0.960749C19.7724 1.05173 19.4558 1.35651 19.3379 1.7591C19.22 2.16168 19.3182 2.59838 19.5977 2.90317L23.0323 6.7698L1.41365 6.7698C1.0097 6.76298 0.636326 6.9836 0.433262 7.34752C0.228014 7.70917 0.228014 8.15952 0.433262 8.52116C0.636326 8.88508 1.0097 9.10571 1.41365 9.09888L23.0323 9.09888L19.5977 12.9655C19.2942 13.2999 19.2069 13.7866 19.375 14.2119C19.541 14.635 19.9318 14.9193 20.3729 14.933Z" fill="white"/>
</svg>
