<svg width="58" height="60" viewBox="0 0 58 60" fill="none" xmlns="http://www.w3.org/2000/svg">
<path d="M47.9585 3.56934H9.31844C6.6601 3.56934 4.48269 5.80623 4.48269 8.5402L4.46094 38.3629C4.46094 41.1093 6.62385 43.3363 9.29427 43.3363H12.9169C13.5839 43.3363 14.1252 43.893 14.1252 44.579V49.7636C14.1252 51.9781 16.7279 53.0866 18.2504 51.5208L25.5004 44.0645C25.9548 43.5972 26.5686 43.3363 27.209 43.3363H47.9585C50.6169 43.3363 52.7919 41.0994 52.7919 38.3654V8.5402C52.7919 5.80623 50.6169 3.56934 47.9585 3.56934Z" fill="url(#paint0_linear_4656_3241)"/>
<path d="M29.0009 6.07275C24.5866 6.07275 21.0192 9.69178 21.0192 14.1701V17.544H18.3587C17.2649 17.544 16.3633 18.4586 16.3633 19.5683V35.763C16.3633 36.8727 17.2649 37.7873 18.3587 37.7873H39.6431C40.7369 37.7873 41.6385 36.8727 41.6385 35.763V19.5683C41.6385 18.4586 40.7369 17.544 39.6431 17.544H36.9826V14.1701C36.9826 9.69178 33.4152 6.07275 29.0009 6.07275ZM29.0009 8.13389C32.7033 8.13389 34.4237 10.414 34.4237 14.1701V17.5648L23.696 17.329V14.1701C23.696 10.414 25.2985 8.13389 29.0009 8.13389ZM18.3587 18.8935H39.6431C40.012 18.8935 40.3082 19.194 40.3082 19.5683V35.763C40.3082 36.1373 40.012 36.4378 39.6431 36.4378H18.3587C17.9898 36.4378 17.6936 36.1373 17.6936 35.763V19.5683C17.6936 19.194 17.9898 18.8935 18.3587 18.8935Z" fill="white"/>
<rect x="17.4453" y="18.1543" width="23.3495" height="18.735" fill="white"/>
<path d="M29.5535 29.0393H28.8618C28.289 29.0393 27.8242 28.5878 27.8242 28.0314V27.3595C27.8242 26.8031 28.289 26.3516 28.8618 26.3516H29.5535C30.1262 26.3516 30.591 26.8031 30.591 27.3595V28.0314C30.591 28.5878 30.1262 29.0393 29.5535 29.0393Z" fill="url(#paint1_linear_4656_3241)"/>
<path opacity="0.35" d="M24.7957 29.0393H24.104C23.5312 29.0393 23.0664 28.5878 23.0664 28.0314V27.3595C23.0664 26.8031 23.5312 26.3516 24.104 26.3516H24.7957C25.3684 26.3516 25.8332 26.8031 25.8332 27.3595V28.0314C25.8332 28.5878 25.3684 29.0393 24.7957 29.0393Z" fill="url(#paint2_linear_4656_3241)"/>
<path opacity="0.35" d="M34.3074 29.0144H33.6157C33.0429 29.0144 32.5781 28.5629 32.5781 28.0065V27.3346C32.5781 26.7782 33.0429 26.3267 33.6157 26.3267H34.3074C34.8801 26.3267 35.3449 26.7782 35.3449 27.3346V28.0065C35.3449 28.5629 34.8801 29.0144 34.3074 29.0144Z" fill="url(#paint3_linear_4656_3241)"/>
<path opacity="0.35" d="M29.5535 33.4133H28.8618C28.289 33.4133 27.8242 32.9618 27.8242 32.4054V31.7335C27.8242 31.1771 28.289 30.7256 28.8618 30.7256H29.5535C30.1262 30.7256 30.591 31.1771 30.591 31.7335V32.4054C30.591 32.9618 30.1262 33.4133 29.5535 33.4133Z" fill="url(#paint4_linear_4656_3241)"/>
<path d="M24.7957 33.4133H24.104C23.5312 33.4133 23.0664 32.9618 23.0664 32.4054V31.7335C23.0664 31.1771 23.5312 30.7256 24.104 30.7256H24.7957C25.3684 30.7256 25.8332 31.1771 25.8332 31.7335V32.4054C25.8332 32.9618 25.3684 33.4133 24.7957 33.4133Z" fill="url(#paint5_linear_4656_3241)"/>
<path d="M34.3425 33.4133H33.6508C33.0781 33.4133 32.6133 32.9618 32.6133 32.4054V31.7335C32.6133 31.1771 33.0781 30.7256 33.6508 30.7256H34.3425C34.9153 30.7256 35.3801 31.1771 35.3801 31.7335V32.4054C35.3801 32.9618 34.9153 33.4133 34.3425 33.4133Z" fill="url(#paint6_linear_4656_3241)"/>
<path opacity="0.35" d="M29.5535 24.6399H28.8618C28.289 24.6399 27.8242 24.1884 27.8242 23.632V22.9601C27.8242 22.4037 28.289 21.9521 28.8618 21.9521H29.5535C30.1262 21.9521 30.591 22.4037 30.591 22.9601V23.632C30.591 24.1884 30.1262 24.6399 29.5535 24.6399Z" fill="url(#paint7_linear_4656_3241)"/>
<path d="M24.7957 24.6399H24.104C23.5312 24.6399 23.0664 24.1884 23.0664 23.632V22.9601C23.0664 22.4037 23.5312 21.9521 24.104 21.9521H24.7957C25.3684 21.9521 25.8332 22.4037 25.8332 22.9601V23.632C25.8332 24.1884 25.3684 24.6399 24.7957 24.6399Z" fill="url(#paint8_linear_4656_3241)"/>
<path d="M34.3425 24.6399H33.6508C33.0781 24.6399 32.6133 24.1884 32.6133 23.632V22.9601C32.6133 22.4037 33.0781 21.9521 33.6508 21.9521H34.3425C34.9153 21.9521 35.3801 22.4037 35.3801 22.9601V23.632C35.3801 24.1884 34.9153 24.6399 34.3425 24.6399Z" fill="url(#paint9_linear_4656_3241)"/>
<defs>
<linearGradient id="paint0_linear_4656_3241" x1="28.6264" y1="3.56934" x2="28.6264" y2="52.2539" gradientUnits="userSpaceOnUse">
<stop offset="0.9999" stop-color="#2474AD"/>
</linearGradient>
<linearGradient id="paint1_linear_4656_3241" x1="29.2076" y1="26.3516" x2="29.2076" y2="29.0393" gradientUnits="userSpaceOnUse">
<stop stop-color="#0085FF"/>
<stop offset="0.078125" stop-color="#00A3FF"/>
<stop offset="1" stop-color="#00A3FF"/>
</linearGradient>
<linearGradient id="paint2_linear_4656_3241" x1="24.4498" y1="26.3516" x2="24.4498" y2="29.0393" gradientUnits="userSpaceOnUse">
<stop stop-color="#0085FF"/>
<stop offset="0.078125" stop-color="#00A3FF"/>
<stop offset="1" stop-color="#00A3FF"/>
</linearGradient>
<linearGradient id="paint3_linear_4656_3241" x1="33.9615" y1="26.3267" x2="33.9615" y2="29.0144" gradientUnits="userSpaceOnUse">
<stop stop-color="#0085FF"/>
<stop offset="0.078125" stop-color="#00A3FF"/>
<stop offset="1" stop-color="#00A3FF"/>
</linearGradient>
<linearGradient id="paint4_linear_4656_3241" x1="29.2076" y1="30.7256" x2="29.2076" y2="33.4133" gradientUnits="userSpaceOnUse">
<stop stop-color="#0085FF"/>
<stop offset="0.078125" stop-color="#00A3FF"/>
<stop offset="1" stop-color="#00A3FF"/>
</linearGradient>
<linearGradient id="paint5_linear_4656_3241" x1="24.4498" y1="30.7256" x2="24.4498" y2="33.4133" gradientUnits="userSpaceOnUse">
<stop stop-color="#0085FF"/>
<stop offset="0.078125" stop-color="#00A3FF"/>
<stop offset="1" stop-color="#00A3FF"/>
</linearGradient>
<linearGradient id="paint6_linear_4656_3241" x1="33.9967" y1="30.7256" x2="33.9967" y2="33.4133" gradientUnits="userSpaceOnUse">
<stop stop-color="#0085FF"/>
<stop offset="0.078125" stop-color="#00A3FF"/>
<stop offset="1" stop-color="#00A3FF"/>
</linearGradient>
<linearGradient id="paint7_linear_4656_3241" x1="29.2076" y1="21.9521" x2="29.2076" y2="24.6399" gradientUnits="userSpaceOnUse">
<stop stop-color="#0085FF"/>
<stop offset="0.078125" stop-color="#00A3FF"/>
<stop offset="1" stop-color="#00A3FF"/>
</linearGradient>
<linearGradient id="paint8_linear_4656_3241" x1="24.4498" y1="21.9521" x2="24.4498" y2="24.6399" gradientUnits="userSpaceOnUse">
<stop stop-color="#0085FF"/>
<stop offset="0.078125" stop-color="#00A3FF"/>
<stop offset="1" stop-color="#00A3FF"/>
</linearGradient>
<linearGradient id="paint9_linear_4656_3241" x1="33.9967" y1="21.9521" x2="33.9967" y2="24.6399" gradientUnits="userSpaceOnUse">
<stop stop-color="#0085FF"/>
<stop offset="0.078125" stop-color="#00A3FF"/>
<stop offset="1" stop-color="#00A3FF"/>
</linearGradient>
</defs>
</svg>
